<svg width="180" height="180" viewBox="0 0 180 180" fill="none" xmlns="http://www.w3.org/2000/svg">
  <defs>
    <linearGradient id="bg" x1="20" y1="20" x2="160" y2="160" gradientUnits="userSpaceOnUse">
      <stop stop-color="#0F172A" />
      <stop offset="1" stop-color="#1E293B" />
    </linearGradient>
  </defs>

  <rect width="180" height="180" rx="36" fill="url(#bg)" />
  <path d="M36 132V50H50L70 84L90 50H104V132H89V78L72 109H67L50 78V132H36Z" fill="#F8FAFC" />
  <path d="M118 52H132C151 52 166 67 166 86V96C166 115 151 130 132 130H118V52ZM132 66H132V116C143 116 152 107 152 96V86C152 75 143 66 132 66Z" fill="#38BDF8" />
</svg>